HIERARCHY
ROOT SpineBase
{
  OFFSET 0.000000 0.000000 0.000000
  CHANNELS 6 Xposition Yposition Zposition Zrotation Xrotation Yrotation
  JOINT SpineMid
  {
    OFFSET 0.000000 31.430845 0.000000
    CHANNELS 3 Zrotation Xrotation Yrotation
    JOINT SpineShoulder
    {
      OFFSET -0.008776 23.648439 -1.524500
      CHANNELS 3 Zrotation Xrotation Yrotation
      JOINT Neck
      {
        OFFSET -0.094501 7.820962 -0.723620
        CHANNELS 3 Zrotation Xrotation Yrotation
        JOINT Head
        {
          OFFSET -7.824067 12.370669 0.645888
          CHANNELS 3 Zrotation Xrotation Yrotation
          End Site
          {
            OFFSET 0 0 0
          }
        }
      }
      JOINT ShoulderLeft
      {
        OFFSET -7.585824 -7.991644 11.756335
        CHANNELS 3 Zrotation Xrotation Yrotation
        JOINT ElbowLeft
        {
          OFFSET -3.179642 -30.182856 -1.812928
          CHANNELS 3 Zrotation Xrotation Yrotation
          JOINT WristLeft
          {
            OFFSET -4.650208 -23.463078 0.428377
            CHANNELS 3 Zrotation Xrotation Yrotation
            JOINT HandLeft
            {
              OFFSET 2.370415 -4.892133 0.384285
              CHANNELS 3 Zrotation Xrotation Yrotation
              JOINT HandTipLeft
              {
                OFFSET -0.047458 -4.213752 -2.673767
                CHANNELS 3 Zrotation Xrotation Yrotation
                End Site
                {
                  OFFSET 0 0 0
                }
              }
              JOINT ThumbLeft
              {
                OFFSET -1.084478 -0.344015 2.209320
                CHANNELS 3 Zrotation Xrotation Yrotation
                End Site
                {
                  OFFSET 0 0 0
                }
              }
            }
          }
        }
      }
      JOINT ShoulderRight
      {
        OFFSET 7.564728 -2.313858 -12.603632
        CHANNELS 3 Zrotation Xrotation Yrotation
        JOINT ElbowRight
        {
          OFFSET 2.879969 -24.350660 -7.138173
          CHANNELS 3 Zrotation Xrotation Yrotation
          JOINT WristRight
          {
            OFFSET -5.051735 -25.199180 -3.833117
            CHANNELS 3 Zrotation Xrotation Yrotation
            JOINT HandRight
            {
              OFFSET -2.323959 -7.459939 0.065036
              CHANNELS 3 Zrotation Xrotation Yrotation
              JOINT HandTipRight
              {
                OFFSET -2.017686 -6.719697 -0.310214
                CHANNELS 3 Zrotation Xrotation Yrotation
                End Site
                {
                  OFFSET 0 0 0
                }
              }
              JOINT ThumbRight
              {
                OFFSET -3.895384 -1.546336 -2.157521
                CHANNELS 3 Zrotation Xrotation Yrotation
                End Site
                {
                  OFFSET 0 0 0
                }
              }
            }
          }
        }
      }
    }
  }
  JOINT HipLeft
  {
    OFFSET -4.128907 0.334426 2.686331
    CHANNELS 3 Zrotation Xrotation Yrotation
    JOINT KneeLeft
    {
      OFFSET 2.623080 -45.157532 2.777514
      CHANNELS 3 Zrotation Xrotation Yrotation
      JOINT AnkleLeft
      {
        OFFSET 14.010520 -26.998431 -18.463459
        CHANNELS 3 Zrotation Xrotation Yrotation
        JOINT FootLeft
        {
          OFFSET 9.113304 -6.489766 -2.609800
          CHANNELS 3 Zrotation Xrotation Yrotation
          End Site
          {
            OFFSET 0 0 0
          }
        }
      }
    }
  }
  JOINT HipRight
  {
    OFFSET 2.473858 1.760382 -9.283344
    CHANNELS 3 Zrotation Xrotation Yrotation
    JOINT KneeRight
    {
      OFFSET 4.900008 -38.973672 -6.099422
      CHANNELS 3 Zrotation Xrotation Yrotation
      JOINT AnkleRight
      {
        OFFSET 7.417861 -34.645676 1.592418
        CHANNELS 3 Zrotation Xrotation Yrotation
        JOINT FootRight
        {
          OFFSET -9.885458 -3.893351 -8.448018
          CHANNELS 3 Zrotation Xrotation Yrotation
          End Site
          {
            OFFSET 0 0 0
          }
        }
      }
    }
  }
}
MOTION
Frames: 9
Frame Time: 0.033333
85.007278 78.937302 342.285050 1.579226 -1.254771 56.511178 1.577309 0.019932 -56.364900 0.140715 -0.746802 0.089956 4.603568 -5.070617 -3.807224 0.000000 0.000000 0.000000 1.622278 1.045584 -0.570918 2.509884 3.018780 -0.432140 -4.054230 18.469374 10.973111 -0.291295 -41.818357 -15.307613 0.000000 0.000000 0.000000 0.000000 0.000000 0.000000 0.802150 0.144200 -1.289380 0.089521 0.815030 0.434710 -1.597932 -7.597955 3.012310 1.794028 1.857267 -1.003840 0.000000 0.000000 0.000000 0.000000 0.000000 0.000000 1.103735 2.815608 -56.475071 -3.744056 -13.612449 -4.803496 -40.260737 20.944199 80.106877 0.000000 0.000000 0.000000 1.525437 2.741376 -56.381952 -1.094253 -0.654425 -0.048194 1.977136 -0.213163 -4.058688 0.000000 0.000000 0.000000
85.002251 78.898651 342.277536 1.890372 -1.477282 56.241925 1.643664 -0.053526 -56.067614 0.108981 -0.738120 0.098316 4.930955 -5.611467 -4.259035 0.000000 0.000000 0.000000 1.858434 1.015883 -0.626293 2.098450 3.665098 -0.549886 -9.049364 8.658263 6.538389 10.111509 -26.379547 -9.431907 0.000000 0.000000 0.000000 0.000000 0.000000 0.000000 1.127530 0.193039 -1.554168 0.045127 0.973296 0.544589 -2.670747 -6.383113 2.677331 2.258321 1.937975 -1.026316 0.000000 0.000000 0.000000 0.000000 0.000000 0.000000 1.339543 3.244278 -56.198674 -5.221073 -17.051501 -6.222958 -39.372713 29.085884 88.352428 0.000000 0.000000 0.000000 1.631153 2.901267 -56.161379 -1.507719 -0.380475 0.035351 0.965917 1.228354 -5.502409 0.000000 0.000000 0.000000
84.986097 78.813826 342.253877 2.234819 -1.710732 55.904254 1.691495 -0.058145 -55.703412 0.072684 -0.732092 0.105349 5.226387 -6.063045 -4.648218 0.000000 0.000000 0.000000 2.052396 1.062554 -0.685276 1.549338 3.569628 -0.481157 -11.412978 7.769269 5.884282 13.228135 -19.268890 -8.848746 0.000000 0.000000 0.000000 0.000000 0.000000 0.000000 1.538138 0.166187 -1.837362 -0.116787 1.249608 0.670366 -3.164691 -5.879498 2.600174 1.991362 1.598417 -0.872168 0.000000 0.000000 0.000000 0.000000 0.000000 0.000000 1.483517 3.654499 -55.855917 -6.888281 -20.109841 -7.518770 -31.776422 44.907006 87.848437 0.000000 0.000000 0.000000 1.856316 3.054938 -55.884823 -2.151371 -0.282606 0.095050 3.090814 -1.056260 -4.481130 0.000000 0.000000 0.000000
84.960201 78.688983 342.220854 2.574838 -1.946974 55.559319 1.719330 0.009507 -55.336118 0.031373 -0.730381 0.109765 5.877260 -6.460820 -4.979756 0.000000 0.000000 0.000000 2.215101 1.171124 -0.741103 0.139136 3.027014 -0.299181 -11.543954 0.697616 1.620371 14.108232 -11.104704 -5.709955 0.000000 0.000000 0.000000 0.000000 0.000000 0.000000 2.042352 0.030628 -2.125330 -0.412961 1.623853 0.822631 -3.741423 -5.737294 2.607102 2.987207 1.425519 -0.913936 0.000000 0.000000 0.000000 0.000000 0.000000 0.000000 1.551712 4.020945 -55.506754 -7.834759 -21.638987 -8.223288 -14.612742 56.139176 70.704831 0.000000 0.000000 0.000000 2.167222 3.211388 -55.605033 -2.850420 -0.400032 0.115692 5.115461 -3.061429 -3.257756 0.000000 0.000000 0.000000
84.913701 78.546375 342.182957 2.938238 -2.193996 55.143431 1.745460 0.082625 -54.895102 -0.003458 -0.734615 0.115615 6.117758 -6.857141 -5.325353 0.000000 0.000000 0.000000 2.067607 1.561324 -0.818913 -0.063417 2.367808 -0.142491 -10.523186 2.325653 2.303324 13.476571 -10.118458 -6.511706 0.000000 0.000000 0.000000 0.000000 0.000000 0.000000 2.330350 -0.028669 -2.354847 -0.615594 1.861162 0.948867 -4.016280 -5.500993 2.594986 4.626103 0.973736 -0.933496 0.000000 0.000000 0.000000 0.000000 0.000000 0.000000 1.665312 4.387037 -55.084181 -8.060839 -21.694672 -8.207785 -6.302887 58.310474 61.927082 0.000000 0.000000 0.000000 2.543815 3.421981 -55.255929 -3.625779 -0.719946 0.091686 6.955513 -4.575192 -2.202330 0.000000 0.000000 0.000000
84.876763 78.384517 342.137665 3.314590 -2.446911 54.692582 1.761941 0.148958 -54.416212 -0.019571 -0.750116 0.123875 6.123938 -6.925989 -5.523655 0.000000 0.000000 0.000000 1.504017 1.800201 -0.837471 0.712719 2.314272 -0.144008 -7.102512 12.309777 7.542381 10.635186 -17.701180 -11.548454 0.000000 0.000000 0.000000 0.000000 0.000000 0.000000 2.513877 -0.000288 -2.563855 -0.972789 1.972931 1.106155 -4.050430 -6.028510 2.810708 6.695938 -0.561789 -0.626996 0.000000 0.000000 0.000000 0.000000 0.000000 0.000000 2.069725 4.856578 -54.627881 -8.178870 -21.825396 -8.220403 -5.441537 57.395921 60.087020 0.000000 0.000000 0.000000 2.934547 3.695849 -54.868747 -4.331691 -1.123085 0.046072 8.299430 -5.553529 -1.315448 0.000000 0.000000 0.000000
84.855047 78.201911 342.068258 3.697132 -2.638198 54.316785 1.754962 0.205563 -54.011280 -0.016894 -0.763101 0.134304 6.339206 -7.003038 -5.694621 0.000000 0.000000 0.000000 0.995126 1.829052 -0.833293 1.506230 3.086716 -0.344080 -2.766013 21.387136 11.939434 4.401539 -26.802465 -16.931031 0.000000 0.000000 0.000000 0.000000 0.000000 0.000000 2.630655 0.017133 -2.755391 -1.245888 2.132378 1.220524 -4.441282 -5.819518 2.754865 8.663868 -1.718774 -0.330588 0.000000 0.000000 0.000000 0.000000 0.000000 0.000000 2.452857 5.323152 -54.251331 -7.681369 -20.940456 -7.753661 -13.415671 52.501627 66.429689 0.000000 0.000000 0.000000 3.156092 3.946071 -54.549915 -4.932366 -1.444851 0.003430 9.027982 -5.815813 -1.084253 0.000000 0.000000 0.000000
84.853115 78.012275 341.982934 4.072578 -2.785133 54.012212 1.743245 0.258840 -53.677928 -0.009533 -0.769369 0.145173 6.662575 -6.954387 -5.767951 0.000000 0.000000 0.000000 1.391374 2.954900 -1.094236 0.244083 1.358854 0.057309 1.860752 26.654083 13.165340 -6.318652 -38.077843 -20.812763 0.000000 0.000000 0.000000 0.000000 0.000000 0.000000 2.761834 -0.012233 -2.946772 -1.715420 2.316873 1.364747 -4.520074 -5.225695 2.552149 8.638038 -3.215152 0.333153 0.000000 0.000000 0.000000 0.000000 0.000000 0.000000 2.803502 5.784471 -53.951350 -7.527606 -21.062662 -7.855526 -14.983463 49.768011 65.848848 0.000000 0.000000 0.000000 3.217175 4.212593 -54.285161 -5.292737 -1.674744 -0.029179 8.968362 -5.365483 -1.451241 0.000000 0.000000 0.000000
84.880334 77.839997 341.873690 4.447095 -2.863754 53.866002 1.766034 0.255433 -53.500846 0.027916 -0.760082 0.161067 6.835687 -6.949371 -5.819633 0.000000 0.000000 0.000000 0.906154 2.754269 -1.082447 1.405405 1.641546 0.018519 0.304450 30.995011 15.159063 -13.062999 -47.808860 -25.548208 0.000000 0.000000 0.000000 0.000000 0.000000 0.000000 2.592597 -0.034057 -3.069103 -2.002086 2.416603 1.445789 -4.408000 -4.253429 2.233030 8.667521 -4.609923 0.986821 0.000000 0.000000 0.000000 0.000000 0.000000 0.000000 3.138492 6.260946 -53.816566 -7.702161 -21.802577 -8.201777 -19.762330 43.686611 66.409209 0.000000 0.000000 0.000000 3.017713 4.458685 -54.155905 -5.453304 -1.672516 -0.029651 8.265405 -4.269105 -2.517616 0.000000 0.000000 0.000000
